<svg xmlns="http://www.w3.org/2000/svg" xmlns:xlink="http://www.w3.org/1999/xlink" width="40" height="40" viewBox="0 0 40 40">
  <defs>
    <clipPath id="clip-flower">
      <rect width="40" height="40"/>
    </clipPath>
  </defs>
  <g id="flower" clip-path="url(#clip-flower)">
    <rect width="40" height="40" fill="#fff"/>
    <g id="Group_26474" data-name="Group 26474" transform="translate(2 -3804)">
      <g id="Rectangle_7375" data-name="Rectangle 7375" transform="translate(0 3806)" fill="none" stroke="#a7a7a7" stroke-width="1">
        <rect width="36" height="36" rx="18" stroke="none"/>
        <rect x="0.5" y="0.5" width="35" height="35" rx="17.5" fill="none"/>
      </g>
      <g id="surface1" transform="translate(8 3814)">
        <path id="Path_5581" data-name="Path 5581" d="M199.961,417a9.219,9.219,0,0,0,1.8,2.353.586.586,0,0,0,.782,0,9.221,9.221,0,0,0,1.8-2.353,9.441,9.441,0,0,1-2.189-1.256A9.443,9.443,0,0,1,199.961,417Zm0,0" transform="translate(-192.15 -399.502)" fill="#1d1d1d"/>
        <path id="Path_5582" data-name="Path 5582" d="M293.185,317.992c-.109.123-.221.244-.336.359a9.647,9.647,0,0,1-4.541,2.447,14.277,14.277,0,0,1-2.6.4,6.511,6.511,0,0,0,3.546,1.2c2.829,0,5.05-2.444,5.143-2.549a.586.586,0,0,0,0-.782A8.805,8.805,0,0,0,293.185,317.992Zm0,0" transform="translate(-274.55 -305.571)" fill="#1d1d1d"/>
        <path id="Path_5583" data-name="Path 5583" d="M6.267,320.8a9.646,9.646,0,0,1-4.542-2.447q-.173-.173-.336-.359a8.821,8.821,0,0,0-1.215,1.077.586.586,0,0,0,0,.782c.093.1,2.314,2.548,5.143,2.548a6.512,6.512,0,0,0,3.546-1.2A14.285,14.285,0,0,1,6.267,320.8Zm0,0" transform="translate(-0.023 -305.571)" fill="#1d1d1d"/>
        <path id="Path_5584" data-name="Path 5584" d="M159.38,14.326a.586.586,0,0,0,.782,0c.144-.129,3.521-3.2,3.521-7.088S160.306.278,160.162.149a.586.586,0,0,0-.782,0c-.144.129-3.521,3.2-3.521,7.088S159.237,14.2,159.38,14.326Zm0,0" transform="translate(-149.771)" fill="#1d1d1d"/>
        <path id="Path_5585" data-name="Path 5585" d="M343.1,27.92a11.6,11.6,0,0,0-.609-1.667.586.586,0,0,0-.722-.3,11.638,11.638,0,0,0-1.609.748,12.272,12.272,0,0,1,.982,1.792A12.328,12.328,0,0,1,343.1,27.92Zm0,0" transform="translate(-326.873 -24.908)" fill="#1d1d1d"/>
        <path id="Path_5586" data-name="Path 5586" d="M99.5,26.7a11.62,11.62,0,0,0-1.609-.748.586.586,0,0,0-.722.3,11.641,11.641,0,0,0-.609,1.668,12.316,12.316,0,0,1,1.959.573A12.286,12.286,0,0,1,99.5,26.7Zm0,0" transform="translate(-92.783 -24.907)" fill="#1d1d1d"/>
        <path id="Path_5587" data-name="Path 5587" d="M309.87,102.918a8.835,8.835,0,0,1-.607,3.148,12.049,12.049,0,0,1-1.3,2.465,14.532,14.532,0,0,1-1.191,1.522,9.489,9.489,0,0,0,5.486-2.421c2.751-2.751,2.533-7.309,2.522-7.5a.586.586,0,0,0-.553-.553c-.026,0-.155-.008-.365-.008a12.65,12.65,0,0,0-4.392.793A8.607,8.607,0,0,1,309.87,102.918Zm0,0" transform="translate(-294.786 -95.681)" fill="#1d1d1d"/>
        <path id="Path_5588" data-name="Path 5588" d="M8.017,110.054a14.552,14.552,0,0,1-1.191-1.522,12.05,12.05,0,0,1-1.3-2.465,8.838,8.838,0,0,1-.607-3.148,8.6,8.6,0,0,1,.4-2.556A12.649,12.649,0,0,0,.926,99.57c-.21,0-.339.006-.365.008a.586.586,0,0,0-.553.553c-.011.193-.229,4.751,2.522,7.5A9.49,9.49,0,0,0,8.017,110.054Zm0,0" transform="translate(0 -95.681)" fill="#1d1d1d"/>
      </g>
    </g>
  </g>
</svg>
